<?xml version="1.0" encoding="utf-8"?><!-- Uploaded to: SVG Repo, www.svgrepo.com, Generator: SVG Repo Mixer Tools -->
<svg width="800px" height="800px" viewBox="0 0 24 24" fill="none" xmlns="http://www.w3.org/2000/svg">
<path fill-rule="evenodd" clip-rule="evenodd" d="M2.5 19C1.67157 19 1 18.3284 1 17.5V6.5C1 5.67157 1.67157 5 2.5 5H8C13 5 13 11.5 10 11.5C13 11.5 14 19 8 19H2.5ZM4.5 11C4.22386 11 4 10.7761 4 10.5V7.5C4 7.22386 4.22386 7 4.5 7H7C7 7 9 7 9 9C9 11 7 11 7 11H4.5ZM4.5 13C4.22386 13 4 13.2239 4 13.5V16.5C4 16.7761 4.22386 17 4.5 17H8C8 17 9.5 17 9.5 15C9.5 13 8 13 8 13H4.5Z" fill="#FFFFFF"/>
<path fill-rule="evenodd" clip-rule="evenodd" d="M21.499 14.0034C22.3279 14.0034 23.0212 13.3199 22.8522 12.5085C21.6065 6.52886 12.9128 7.08088 13 14.0034C13.0665 19.2762 20.4344 20.9671 22.6038 16.1898C22.9485 15.4308 22.1747 14.9997 21.5372 14.9997C20.9706 14.9997 20.5313 15.5223 20.1693 15.9582C19.1272 17.2132 15.9628 17.1221 15.5449 14.5142C15.5005 14.2375 15.7304 14.0034 16.0106 14.0034H21.499ZM15.8184 11.9997C15.671 11.9997 15.5758 11.8453 15.6545 11.7207C16.7141 10.0424 19.2614 10.0605 20.3398 11.7189C20.4207 11.8434 20.3257 11.9997 20.1772 11.9997H15.8184Z" fill="#FFFFFF"/>
<path d="M16 6C15.4477 6 15 6.44772 15 7C15 7.55228 15.4477 8 16 8H20C20.5523 8 21 7.55228 21 7C21 6.44772 20.5523 6 20 6H16Z" fill="#FFFFFF"/>
</svg>